<svg width="28" height="28" viewBox="0 0 28 28" fill="none" xmlns="http://www.w3.org/2000/svg">
<circle cx="13.7134" cy="13.7134" r="12.9681" fill="#021821" stroke="url(#paint0_linear_113_19)" stroke-width="1.49058"/>
<path d="M6.64687 15.534C6.26552 15.534 5.89747 15.4875 5.54272 15.3944C5.19241 15.2968 4.90639 15.1726 4.68467 15.0219L5.11702 14.0507C5.32544 14.1838 5.56489 14.2946 5.83539 14.3833C6.11032 14.4676 6.38303 14.5097 6.65352 14.5097C6.83533 14.5097 6.98166 14.4942 7.09252 14.4631C7.20338 14.4277 7.2832 14.3833 7.33198 14.3301C7.38519 14.2725 7.4118 14.206 7.4118 14.1306C7.4118 14.0241 7.36302 13.9399 7.26546 13.8778C7.16791 13.8157 7.04153 13.7647 6.88633 13.7248C6.73112 13.6849 6.55818 13.645 6.36751 13.6051C6.18127 13.5652 5.99281 13.5142 5.80213 13.4521C5.61589 13.39 5.44516 13.3102 5.28996 13.2127C5.13476 13.1107 5.00838 12.9799 4.91082 12.8202C4.81327 12.6561 4.76449 12.45 4.76449 12.2016C4.76449 11.9223 4.83987 11.6695 4.99064 11.4434C5.14584 11.2172 5.37643 11.0354 5.6824 10.8979C5.98837 10.7605 6.36972 10.6917 6.82646 10.6917C7.13243 10.6917 7.43175 10.7272 7.72442 10.7982C8.02152 10.8647 8.28536 10.9644 8.51595 11.0975L8.11021 12.0752C7.88849 11.9555 7.66899 11.8668 7.45171 11.8092C7.23442 11.7471 7.02379 11.7161 6.81981 11.7161C6.638 11.7161 6.49167 11.736 6.38081 11.7759C6.26995 11.8114 6.19013 11.8602 6.14136 11.9223C6.09258 11.9843 6.06819 12.0553 6.06819 12.1351C6.06819 12.2371 6.11475 12.3191 6.20787 12.3812C6.30543 12.4389 6.43181 12.4876 6.58701 12.5276C6.74664 12.563 6.91958 12.6007 7.10583 12.6406C7.2965 12.6805 7.48496 12.7315 7.67121 12.7936C7.86188 12.8513 8.03482 12.9311 8.19002 13.0331C8.34523 13.1306 8.46939 13.2614 8.56251 13.4255C8.66007 13.5851 8.70884 13.7869 8.70884 14.0308C8.70884 14.3013 8.63124 14.5518 8.47604 14.7824C8.32527 15.0086 8.0969 15.1904 7.79093 15.3278C7.4894 15.4653 7.10804 15.534 6.64687 15.534ZM6.36751 16.2391V15.2879H7.16569V16.2391H6.36751ZM6.36751 10.9312V9.98667H7.16569V10.9312H6.36751ZM10.9535 15.534C10.5721 15.534 10.2041 15.4875 9.84932 15.3944C9.49901 15.2968 9.21299 15.1726 8.99127 15.0219L9.42362 14.0507C9.63204 14.1838 9.87149 14.2946 10.142 14.3833C10.4169 14.4676 10.6896 14.5097 10.9601 14.5097C11.1419 14.5097 11.2883 14.4942 11.3991 14.4631C11.51 14.4277 11.5898 14.3833 11.6386 14.3301C11.6918 14.2725 11.7184 14.206 11.7184 14.1306C11.7184 14.0241 11.6696 13.9399 11.5721 13.8778C11.4745 13.8157 11.3481 13.7647 11.1929 13.7248C11.0377 13.6849 10.8648 13.645 10.6741 13.6051C10.4879 13.5652 10.2994 13.5142 10.1087 13.4521C9.92249 13.39 9.75176 13.3102 9.59656 13.2127C9.44136 13.1107 9.31498 12.9799 9.21742 12.8202C9.11987 12.6561 9.07109 12.45 9.07109 12.2016C9.07109 11.9223 9.14648 11.6695 9.29724 11.4434C9.45245 11.2172 9.68303 11.0354 9.989 10.8979C10.295 10.7605 10.6763 10.6917 11.1331 10.6917C11.439 10.6917 11.7384 10.7272 12.031 10.7982C12.3281 10.8647 12.592 10.9644 12.8225 11.0975L12.4168 12.0752C12.1951 11.9555 11.9756 11.8668 11.7583 11.8092C11.541 11.7471 11.3304 11.7161 11.1264 11.7161C10.9446 11.7161 10.7983 11.736 10.6874 11.7759C10.5766 11.8114 10.4967 11.8602 10.448 11.9223C10.3992 11.9843 10.3748 12.0553 10.3748 12.1351C10.3748 12.2371 10.4214 12.3191 10.5145 12.3812C10.612 12.4389 10.7384 12.4876 10.8936 12.5276C11.0532 12.563 11.2262 12.6007 11.4124 12.6406C11.6031 12.6805 11.7916 12.7315 11.9778 12.7936C12.1685 12.8513 12.3414 12.9311 12.4966 13.0331C12.6518 13.1306 12.776 13.2614 12.8691 13.4255C12.9667 13.5851 13.0154 13.7869 13.0154 14.0308C13.0154 14.3013 12.9378 14.5518 12.7826 14.7824C12.6319 15.0086 12.4035 15.1904 12.0975 15.3278C11.796 15.4653 11.4146 15.534 10.9535 15.534ZM13.6238 15.4409V10.7849H15.8255C16.3398 10.7849 16.7921 10.8802 17.1824 11.0709C17.5726 11.2615 17.8763 11.5298 18.0936 11.8757C18.3153 12.2216 18.4262 12.634 18.4262 13.1129C18.4262 13.5874 18.3153 13.9998 18.0936 14.3501C17.8763 14.6959 17.5726 14.9642 17.1824 15.1549C16.7921 15.3456 16.3398 15.4409 15.8255 15.4409H13.6238ZM14.9408 14.39H15.7722C16.0383 14.39 16.2689 14.3412 16.464 14.2436C16.6635 14.1417 16.8187 13.9953 16.9296 13.8046C17.0405 13.6095 17.0959 13.3789 17.0959 13.1129C17.0959 12.8424 17.0405 12.6118 16.9296 12.4211C16.8187 12.2304 16.6635 12.0863 16.464 11.9888C16.2689 11.8868 16.0383 11.8358 15.7722 11.8358H14.9408V14.39ZM19.1191 15.4409V10.7849H21.5003C22.1123 10.7849 22.569 10.8979 22.8706 11.1241C23.1721 11.3458 23.3229 11.6385 23.3229 12.0021C23.3229 12.2415 23.2586 12.4522 23.13 12.634C23.0058 12.8113 22.8284 12.9532 22.5978 13.0597C22.3717 13.1617 22.1012 13.2127 21.7864 13.2127L21.9194 12.8934C22.2475 12.8934 22.5335 12.9444 22.7774 13.0464C23.0213 13.1439 23.2098 13.288 23.3428 13.4787C23.4803 13.665 23.549 13.8933 23.549 14.1638C23.549 14.5674 23.3849 14.8822 23.0568 15.1083C22.7331 15.3301 22.2586 15.4409 21.6334 15.4409H19.1191ZM20.4228 14.4898H21.5269C21.7531 14.4898 21.9238 14.4521 22.0391 14.3767C22.1588 14.2969 22.2187 14.1771 22.2187 14.0175C22.2187 13.8579 22.1588 13.7403 22.0391 13.665C21.9238 13.5851 21.7531 13.5452 21.5269 13.5452H20.3297V12.634H21.3274C21.5491 12.634 21.7154 12.5963 21.8263 12.5209C21.9371 12.4455 21.9926 12.3324 21.9926 12.1817C21.9926 12.0309 21.9371 11.92 21.8263 11.8491C21.7154 11.7737 21.5491 11.736 21.3274 11.736H20.4228V14.4898Z" fill="white"/>
<defs>
<linearGradient id="paint0_linear_113_19" x1="13.7134" y1="0" x2="13.7134" y2="27.4267" gradientUnits="userSpaceOnUse">
<stop stop-color="#2FDDAF"/>
<stop offset="1" stop-color="#6B88DC"/>
</linearGradient>
</defs>
</svg>
