<svg width="39" height="39" viewBox="0 0 39 39" fill="none" xmlns="http://www.w3.org/2000/svg">
<rect x="0.5" y="0.5" width="38" height="38" rx="3.5" stroke="white"/>
<g clip-path="url(#clip0_194_14)">
<path d="M29.1663 15.8334C29.1658 15.6795 29.1227 15.5288 29.0418 15.3979C28.9609 15.2669 28.8454 15.161 28.7079 15.0917L20.3746 10.9251C20.2583 10.8665 20.1298 10.8359 19.9996 10.8359C19.8693 10.8359 19.7409 10.8665 19.6246 10.9251L11.2913 15.0917C11.1548 15.1617 11.0402 15.2679 10.9602 15.3988C10.8802 15.5296 10.8379 15.68 10.8379 15.8334C10.8379 15.9868 10.8802 16.1372 10.9602 16.268C11.0402 16.3989 11.1548 16.5051 11.2913 16.5751L13.9663 17.9167L11.2913 19.2584C11.1548 19.3283 11.0402 19.4346 10.9602 19.5655C10.8802 19.6963 10.8379 19.8467 10.8379 20.0001C10.8379 20.1535 10.8802 20.3038 10.9602 20.4347C11.0402 20.5656 11.1548 20.6718 11.2913 20.7417L13.9663 22.0834L11.2913 23.4251C11.1548 23.495 11.0402 23.6013 10.9602 23.7321C10.8802 23.863 10.8379 24.0134 10.8379 24.1667C10.8379 24.3201 10.8802 24.4705 10.9602 24.6014C11.0402 24.7322 11.1548 24.8385 11.2913 24.9084L19.6246 29.0751C19.7409 29.1337 19.8693 29.1642 19.9996 29.1642C20.1298 29.1642 20.2583 29.1337 20.3746 29.0751L28.7079 24.9084C28.8444 24.8385 28.959 24.7322 29.039 24.6014C29.119 24.4705 29.1613 24.3201 29.1613 24.1667C29.1613 24.0134 29.119 23.863 29.039 23.7321C28.959 23.6013 28.8444 23.495 28.7079 23.4251L26.0329 22.0834L28.7079 20.7417C28.8444 20.6718 28.959 20.5656 29.039 20.4347C29.119 20.3038 29.1613 20.1535 29.1613 20.0001C29.1613 19.8467 29.119 19.6963 29.039 19.5655C28.959 19.4346 28.8444 19.3283 28.7079 19.2584L26.0329 17.9167L28.7079 16.5751C28.8454 16.5058 28.9609 16.3999 29.0418 16.269C29.1227 16.1381 29.1658 15.9873 29.1663 15.8334V15.8334ZM26.4663 24.1667L19.9996 27.4001L13.5329 24.1667L15.8329 23.0167L19.6246 24.9084C19.7409 24.967 19.8693 24.9976 19.9996 24.9976C20.1298 24.9976 20.2583 24.967 20.3746 24.9084L24.1663 23.0167L26.4663 24.1667ZM26.4663 20.0001L19.9996 23.2334L13.5329 20.0001L15.8329 18.8501L19.6246 20.7417C19.7409 20.8004 19.8693 20.8309 19.9996 20.8309C20.1298 20.8309 20.2583 20.8004 20.3746 20.7417L24.1663 18.8501L26.4663 20.0001ZM19.9996 19.0667L13.5329 15.8334L19.9996 12.6001L26.4663 15.8334L19.9996 19.0667Z" fill="white"/>
</g>
<defs>
<clipPath id="clip0_194_14">
<rect width="20" height="20" fill="white" transform="translate(10 10)"/>
</clipPath>
</defs>
</svg>
