<?xml version="1.0" standalone="no"?>
<!DOCTYPE svg PUBLIC "-//W3C//DTD SVG 20010904//EN"
 "http://www.w3.org/TR/2001/REC-SVG-20010904/DTD/svg10.dtd">
<svg version="1.0" xmlns="http://www.w3.org/2000/svg"
 width="652.000000pt" height="652.000000pt" viewBox="0 0 652.000000 652.000000"
 preserveAspectRatio="xMidYMid meet">
<metadata>
Created by potrace 1.14, written by Peter Selinger 2001-2017
</metadata>
<g transform="translate(0.000000,652.000000) scale(0.100000,-0.100000)"
fill="#000000" stroke="none">
<path d="M0 3300 l0 -3200 3199 0 3199 0 4 35 c2 19 1 40 -2 45 -3 5 -3 31 0
57 3 27 3 72 -1 101 -3 29 -2 55 2 58 4 2 4 19 0 36 -4 18 -4 47 -1 65 4 17 4
36 0 42 -3 6 -4 34 0 61 4 27 4 54 0 60 -3 5 -3 31 0 57 3 27 3 72 -1 101 -3
29 -2 55 2 58 4 2 4 19 0 36 -4 18 -4 47 -1 65 4 17 4 36 0 42 -3 6 -4 34 0
61 4 27 4 54 0 60 -4 6 -4 32 -1 58 3 26 4 70 1 97 -3 28 -3 83 0 123 3 39 1
72 -3 72 -5 0 -6 4 -2 10 3 5 5 46 5 92 -1 46 -1 91 -1 101 1 9 1 24 1 32 1
38 1 121 -1 148 0 6 0 59 0 117 0 58 0 114 0 125 0 11 0 55 1 98 0 43 -2 82
-5 87 -3 5 -1 11 4 14 5 3 5 20 2 38 -4 18 -4 47 0 64 3 18 3 37 0 43 -4 6 -5
34 -1 61 4 27 4 54 0 60 -4 6 -4 32 -1 58 4 26 4 68 1 95 -3 26 -3 52 0 58 4
5 4 29 0 53 -3 24 -3 51 0 62 4 10 4 30 0 44 -3 14 -3 42 0 62 4 21 5 40 2 42
-7 7 -8 106 -1 106 3 0 3 20 -1 43 -3 24 -4 52 0 61 3 9 3 44 0 77 -3 32 -3
59 1 59 3 0 3 20 -1 43 -3 24 -3 52 0 63 4 10 4 32 0 49 -3 16 -3 44 1 62 3
18 4 35 1 37 -6 7 -8 106 -2 106 3 0 3 26 0 58 -3 31 -3 96 0 145 3 48 1 87
-3 87 -5 0 -6 4 -2 10 3 5 5 46 5 92 -1 46 -1 91 -1 101 1 9 1 24 1 32 1 38 1
121 -1 148 0 6 0 59 0 117 0 58 0 114 0 125 0 11 0 55 1 98 0 43 -2 82 -5 87
-3 5 -1 11 4 14 5 3 6 21 2 38 -4 18 -4 47 -1 65 4 17 4 36 0 42 -3 6 -4 34 0
61 4 27 4 54 0 60 -3 5 -3 31 0 57 3 27 3 69 -1 95 -3 26 -2 52 1 58 4 6 4 30
0 54 -3 24 -3 51 0 62 4 10 4 30 0 44 -3 14 -3 42 0 62 4 21 5 40 2 42 -7 7
-8 106 -1 106 3 0 3 20 -1 43 -3 24 -4 52 0 61 3 9 3 44 0 77 -3 32 -3 59 1
59 3 0 3 20 -1 43 -3 24 -3 52 0 63 4 10 4 32 0 49 -3 16 -3 44 1 62 3 18 4
35 1 37 -8 9 -7 106 1 106 5 0 6 4 2 9 -3 6 -6 46 -6 90 l-1 81 -3199 0 -3199
0 0 -3200z"/>
</g>
</svg>
