<svg width="39" height="39" viewBox="0 0 39 39" fill="none" xmlns="http://www.w3.org/2000/svg">
<rect x="0.5" y="0.5" width="38" height="38" rx="3.5" stroke="white"/>
<path d="M15.8333 19.3333H12.5C11.837 19.3333 11.2011 19.0699 10.7322 18.6011C10.2634 18.1323 10 17.4964 10 16.8333V13.5C10 12.837 10.2634 12.2011 10.7322 11.7322C11.2011 11.2634 11.837 11 12.5 11H15.8333C16.4964 11 17.1323 11.2634 17.6011 11.7322C18.0699 12.2011 18.3333 12.837 18.3333 13.5V16.8333C18.3333 17.4964 18.0699 18.1323 17.6011 18.6011C17.1323 19.0699 16.4964 19.3333 15.8333 19.3333ZM12.5 12.6667C12.279 12.6667 12.067 12.7545 11.9107 12.9107C11.7545 13.067 11.6667 13.279 11.6667 13.5V16.8333C11.6667 17.0543 11.7545 17.2663 11.9107 17.4226C12.067 17.5789 12.279 17.6667 12.5 17.6667H15.8333C16.0543 17.6667 16.2663 17.5789 16.4226 17.4226C16.5789 17.2663 16.6667 17.0543 16.6667 16.8333V13.5C16.6667 13.279 16.5789 13.067 16.4226 12.9107C16.2663 12.7545 16.0543 12.6667 15.8333 12.6667H12.5ZM25.8333 19.3333H22.5C21.837 19.3333 21.2011 19.0699 20.7322 18.6011C20.2634 18.1323 20 17.4964 20 16.8333V13.5C20 12.837 20.2634 12.2011 20.7322 11.7322C21.2011 11.2634 21.837 11 22.5 11H25.8333C26.4964 11 27.1323 11.2634 27.6011 11.7322C28.0699 12.2011 28.3333 12.837 28.3333 13.5V16.8333C28.3333 17.4964 28.0699 18.1323 27.6011 18.6011C27.1323 19.0699 26.4964 19.3333 25.8333 19.3333ZM22.5 12.6667C22.279 12.6667 22.067 12.7545 21.9107 12.9107C21.7545 13.067 21.6667 13.279 21.6667 13.5V16.8333C21.6667 17.0543 21.7545 17.2663 21.9107 17.4226C22.067 17.5789 22.279 17.6667 22.5 17.6667H25.8333C26.0543 17.6667 26.2663 17.5789 26.4226 17.4226C26.5789 17.2663 26.6667 17.0543 26.6667 16.8333V13.5C26.6667 13.279 26.5789 13.067 26.4226 12.9107C26.2663 12.7545 26.0543 12.6667 25.8333 12.6667H22.5ZM15.8333 29.3333H12.5C11.837 29.3333 11.2011 29.0699 10.7322 28.6011C10.2634 28.1323 10 27.4964 10 26.8333V23.5C10 22.837 10.2634 22.2011 10.7322 21.7322C11.2011 21.2634 11.837 21 12.5 21H15.8333C16.4964 21 17.1323 21.2634 17.6011 21.7322C18.0699 22.2011 18.3333 22.837 18.3333 23.5V26.8333C18.3333 27.4964 18.0699 28.1323 17.6011 28.6011C17.1323 29.0699 16.4964 29.3333 15.8333 29.3333ZM12.5 22.6667C12.279 22.6667 12.067 22.7545 11.9107 22.9107C11.7545 23.067 11.6667 23.279 11.6667 23.5V26.8333C11.6667 27.0543 11.7545 27.2663 11.9107 27.4226C12.067 27.5789 12.279 27.6667 12.5 27.6667H15.8333C16.0543 27.6667 16.2663 27.5789 16.4226 27.4226C16.5789 27.2663 16.6667 27.0543 16.6667 26.8333V23.5C16.6667 23.279 16.5789 23.067 16.4226 22.9107C16.2663 22.7545 16.0543 22.6667 15.8333 22.6667H12.5ZM25.8333 29.3333H22.5C21.837 29.3333 21.2011 29.0699 20.7322 28.6011C20.2634 28.1323 20 27.4964 20 26.8333V23.5C20 22.837 20.2634 22.2011 20.7322 21.7322C21.2011 21.2634 21.837 21 22.5 21H25.8333C26.4964 21 27.1323 21.2634 27.6011 21.7322C28.0699 22.2011 28.3333 22.837 28.3333 23.5V26.8333C28.3333 27.4964 28.0699 28.1323 27.6011 28.6011C27.1323 29.0699 26.4964 29.3333 25.8333 29.3333ZM22.5 22.6667C22.279 22.6667 22.067 22.7545 21.9107 22.9107C21.7545 23.067 21.6667 23.279 21.6667 23.5V26.8333C21.6667 27.0543 21.7545 27.2663 21.9107 27.4226C22.067 27.5789 22.279 27.6667 22.5 27.6667H25.8333C26.0543 27.6667 26.2663 27.5789 26.4226 27.4226C26.5789 27.2663 26.6667 27.0543 26.6667 26.8333V23.5C26.6667 23.279 26.5789 23.067 26.4226 22.9107C26.2663 22.7545 26.0543 22.6667 25.8333 22.6667H22.5Z" fill="white"/>
</svg>
